<svg fill="#FFFFFF" xmlns="http://www.w3.org/2000/svg" data-name="Layer 1" viewBox="0 0 100 100" x="0px" y="0px"><title>all</title><g><g><g data-name="Zoom In"><g data-name="Calendar"><g><path d="M85.36,14.64a50,50,0,1,0,0,70.71A49.87,49.87,0,0,0,85.36,14.64ZM49.24,81.16a7.64,7.64,0,1,1,7.64-7.65A7.65,7.65,0,0,1,49.24,81.16Zm20.4-38c-1.2,2-3.74,4.58-7.53,7.56-2.81,2.22-4.54,4-5.29,5.36a10.75,10.75,0,0,0-1.14,4.71H41.81V59.92a18.16,18.16,0,0,1,.85-6.08,13.17,13.17,0,0,1,2.49-4.21,80.41,80.41,0,0,1,7.76-7c2.36-1.92,3.5-3.68,3.5-5.39a5.15,5.15,0,0,0-1.52-3.93,6.26,6.26,0,0,0-4.42-1.41A7,7,0,0,0,45.26,34c-1.27,1.28-2.09,3.34-2.5,6.29L28.57,38.54a20.33,20.33,0,0,1,6-12.71c3.47-3.34,8.91-5,16.17-5,5.67,0,10.28,1.19,13.73,3.53,4.71,3.18,7,7.3,7,12.58A12,12,0,0,1,69.64,43.12Z"></path></g></g></g></g></g></svg>