<svg fill="#1F2022" xmlns="http://www.w3.org/2000/svg" data-name="Layer 1" viewBox="0 0 100 100" x="0px" y="0px"><title>Artboard 17</title><path d="M6.74,81.34A3.27,3.27,0,1,0,2.15,86l11.76,11.6a3.27,3.27,0,1,0,4.59-4.65l-1.18-1.16L27.4,86.85l3.12,3.08A13.74,13.74,0,0,0,52.69,74.49L74.53,63.81l2.39,2.36a3.27,3.27,0,0,0,4.59-4.65L37.33,17.91a3.27,3.27,0,1,0-4.59,4.65l2,2L7.5,82.09Zm38.57,3.87a7.22,7.22,0,0,1-10.2.07l-1.49-1.47,13.2-6.45A7.22,7.22,0,0,1,45.31,85.21ZM16.23,78.91l21.26-45a1.12,1.12,0,0,1,1.79-.32l5.51,5.43A1.85,1.85,0,0,1,45,41.46l-27.83,38A.54.54,0,0,1,16.23,78.91Zm47.43-45a3.74,3.74,0,0,1,0-1.38,4.34,4.34,0,0,1,.2-.65,4.18,4.18,0,0,1,.33-.61,3.52,3.52,0,0,1,1-1,3.79,3.79,0,0,1,.6-.32,4.42,4.42,0,0,1,.66-.21,3.78,3.78,0,0,1,.69-.06,3.13,3.13,0,0,1,.68.07,2.72,2.72,0,0,1,.66.21,3.07,3.07,0,0,1,.6.32,3.38,3.38,0,0,1,1,1,3.07,3.07,0,0,1,.32.6,3,3,0,0,1,.21.66,3.12,3.12,0,0,1,.07.68,3.55,3.55,0,0,1-1,2.48,3.85,3.85,0,0,1-.52.44,5.54,5.54,0,0,1-.61.33,3.53,3.53,0,0,1-.66.19,3.14,3.14,0,0,1-.68.07,3.74,3.74,0,0,1-.69-.06,4.41,4.41,0,0,1-.66-.21,3.72,3.72,0,0,1-.6-.32,3.41,3.41,0,0,1-1-1,3.72,3.72,0,0,1-.32-.6A3.9,3.9,0,0,1,63.67,33.87Zm13.87-6.16a3.51,3.51,0,1,1,0-5A3.51,3.51,0,0,1,77.54,27.71ZM83,20.8a3.52,3.52,0,0,1-3.51-3.51,3.84,3.84,0,0,1,.07-.7,4.3,4.3,0,0,1,.2-.65,3.64,3.64,0,0,1,.33-.61A3.54,3.54,0,0,1,83,13.77a3.51,3.51,0,0,1,2.48,6A3.57,3.57,0,0,1,83,20.8Zm-21.7,3.37a4.35,4.35,0,0,1,.2.65,3.76,3.76,0,0,1,.06.69,3.53,3.53,0,0,1-1,2.48,4,4,0,0,1-.54.44,3.79,3.79,0,0,1-.6.32,4.45,4.45,0,0,1-.66.21,3.79,3.79,0,0,1-.69.06,3.16,3.16,0,0,1-.68-.07,2.91,2.91,0,0,1-.65-.2,3.34,3.34,0,0,1-.61-.33,3.13,3.13,0,0,1-.53-.43,3.22,3.22,0,0,1-.44-.54,3.07,3.07,0,0,1-.32-.6,3,3,0,0,1-.21-.66,3.29,3.29,0,0,1,0-1.36,3,3,0,0,1,.21-.66,3.07,3.07,0,0,1,.32-.6A3.54,3.54,0,0,1,58.06,22a3.76,3.76,0,0,1,.69.06,4.45,4.45,0,0,1,.66.21,3.76,3.76,0,0,1,.6.32,4,4,0,0,1,.54.44,3.93,3.93,0,0,1,.43.53A4.16,4.16,0,0,1,61.31,24.17Zm-.09-5.72a3.51,3.51,0,1,1,4.64-1.77,3.68,3.68,0,0,1-.72,1A3.51,3.51,0,0,1,61.23,18.45ZM70.75,5a3.5,3.5,0,0,1-3.51,3.51,3.69,3.69,0,0,1-.68-.07,2.89,2.89,0,0,1-.65-.2,3.32,3.32,0,0,1-.61-.33,3.1,3.1,0,0,1-.53-.43,3.55,3.55,0,0,1-1-2.48,3.64,3.64,0,0,1,3.51-3.51,3.56,3.56,0,0,1,2.49,1,3.83,3.83,0,0,1,.43.53,4.16,4.16,0,0,1,.33.61,4.35,4.35,0,0,1,.2.65A3.76,3.76,0,0,1,70.75,5ZM78,40.88a4.46,4.46,0,0,1,.21.66,3.76,3.76,0,0,1,.06.69,3.54,3.54,0,0,1-1.57,2.92,3.07,3.07,0,0,1-.6.32,3,3,0,0,1-.66.21,3.29,3.29,0,0,1-1.36,0,3,3,0,0,1-.66-.21,3.07,3.07,0,0,1-.6-.32,3.22,3.22,0,0,1-.54-.44,3.13,3.13,0,0,1-.43-.53,3.34,3.34,0,0,1-.33-.61,2.92,2.92,0,0,1-.2-.65,3.16,3.16,0,0,1-.07-.68,3.79,3.79,0,0,1,.06-.69,4.46,4.46,0,0,1,.21-.66,3.79,3.79,0,0,1,.32-.6,4.05,4.05,0,0,1,.44-.54,3.53,3.53,0,0,1,2.48-1,3.76,3.76,0,0,1,.69.06,4.36,4.36,0,0,1,.65.2,4.15,4.15,0,0,1,.61.33,3.93,3.93,0,0,1,.53.43,4,4,0,0,1,.44.54A3.76,3.76,0,0,1,78,40.88Zm3.82-1.82a3.51,3.51,0,0,1,.72-3.92,3.69,3.69,0,0,1,1-.72,3.51,3.51,0,1,1-1.77,4.64Zm16-8.51a3.56,3.56,0,0,1,1,2.49,3.64,3.64,0,0,1-3.51,3.51,3.55,3.55,0,0,1-2.48-1A3.1,3.1,0,0,1,92.4,35a3.31,3.31,0,0,1-.33-.61,2.89,2.89,0,0,1-.2-.65A3.69,3.69,0,0,1,91.8,33a3.5,3.5,0,0,1,3.51-3.51,3.76,3.76,0,0,1,.69.06,4.36,4.36,0,0,1,.65.2,4.15,4.15,0,0,1,.61.33A3.84,3.84,0,0,1,97.8,30.56Z"></path></svg>