<svg fill="#FFFFFF" xmlns="http://www.w3.org/2000/svg" xmlns:xlink="http://www.w3.org/1999/xlink" version="1.1" x="0px" y="0px" viewBox="0 0 100 100" enable-background="new 0 0 100 100" xml:space="preserve"><path fill="#FFFFFF" d="M74.505,17c0.651,2,1.011,5,1.011,6H24.5c0-1,0.361-4,1.011-6H10v81h80V17H74.505z"></path><path fill="#FFFFFF" d="M61.124,9H59.41c-0.259-5-4.37-7.583-9.4-7.583C44.98,1.417,40.872,4,40.613,9h-1.717  C32.337,9,27.02,13,27.02,21H73C73,13,67.683,9,61.124,9z M49.51,11.247c-2.287,0-4.141-1.343-4.141-3s1.854-3,4.141-3  c2.287,0,4.141,1.343,4.141,3S51.797,11.247,49.51,11.247z"></path></svg>