<svg fill="#FFFFFF" xmlns="http://www.w3.org/2000/svg" xmlns:xlink="http://www.w3.org/1999/xlink" version="1.1" x="0px" y="0px" viewBox="0 0 24 24" enable-background="new 0 0 24 24" xml:space="preserve"><g><g><path d="M11.223,15.416c0.085,0.057,0.182,0.084,0.277,0.084c0.162,0,0.32-0.078,0.417-0.223l4-6    c0.153-0.229,0.091-0.54-0.139-0.693c-0.231-0.153-0.541-0.091-0.693,0.139l-4,6C10.931,14.952,10.993,15.263,11.223,15.416z"></path><path d="M11,11.5c1.103,0,2-0.897,2-2s-0.897-2-2-2s-2,0.897-2,2S9.897,11.5,11,11.5z M11,8.5c0.551,0,1,0.448,1,1s-0.449,1-1,1    s-1-0.448-1-1S10.449,8.5,11,8.5z"></path><path d="M14,14.5c0,1.103,0.897,2,2,2s2-0.897,2-2s-0.897-2-2-2S14,13.397,14,14.5z M16,13.5c0.551,0,1,0.448,1,1s-0.449,1-1,1    s-1-0.448-1-1S15.449,13.5,16,13.5z"></path><path d="M6.5,10.5C6.224,10.5,6,10.724,6,11v2c0,0.276,0.224,0.5,0.5,0.5S7,13.276,7,13v-2C7,10.724,6.776,10.5,6.5,10.5z"></path><path d="M20.5,5h-17C3.224,5,3,5.224,3,5.5V10c0,0.178,0.095,0.343,0.249,0.432C3.656,10.669,4,11.388,4,12    s-0.344,1.331-0.751,1.568C3.095,13.657,3,13.822,3,14v4.5C3,18.776,3.224,19,3.5,19h17c0.276,0,0.5-0.224,0.5-0.5v-13    C21,5.224,20.776,5,20.5,5z M20,18H7v-2c0-0.276-0.224-0.5-0.5-0.5S6,15.724,6,16v2H4v-3.742C4.651,13.72,5,12.737,5,12    s-0.349-1.72-1-2.258V6h2v2c0,0.276,0.224,0.5,0.5,0.5S7,8.276,7,8V6h13V18z"></path></g></g></svg>